<mxfile host="app.diagrams.net" modified="2024-04-25T20:16:34.261Z" agent="Mozilla/5.0 (Windows NT 10.0; Win64; x64; rv:124.0) Gecko/20100101 Firefox/124.0" etag="Ras3FzY0o7Pejpg48Awy" version="24.3.0" type="github">
  <diagram name="Page-1" id="BilDIiB9EAeW2KUR8oTg">
    <mxGraphModel dx="1434" dy="1882" grid="1" gridSize="10" guides="1" tooltips="1" connect="1" arrows="1" fold="1" page="1" pageScale="1" pageWidth="850" pageHeight="1100" math="0" shadow="0">
      <root>
        <mxCell id="0" />
        <mxCell id="1" parent="0" />
        <mxCell id="yM6eI-i70DeQBDmgYr31-2" style="edgeStyle=orthogonalEdgeStyle;rounded=0;orthogonalLoop=1;jettySize=auto;html=1;exitX=0.5;exitY=1;exitDx=0;exitDy=0;" edge="1" parent="1" source="Vjh2JXgH-vHC_lRV9fql-2" target="yM6eI-i70DeQBDmgYr31-1">
          <mxGeometry relative="1" as="geometry" />
        </mxCell>
        <mxCell id="Vjh2JXgH-vHC_lRV9fql-2" value="&lt;font style=&quot;font-size: 20px;&quot;&gt;Main&lt;/font&gt;" style="html=1;whiteSpace=wrap;" parent="1" vertex="1">
          <mxGeometry x="120" y="170" width="120" height="30" as="geometry" />
        </mxCell>
        <mxCell id="Vjh2JXgH-vHC_lRV9fql-11" style="edgeStyle=orthogonalEdgeStyle;rounded=0;orthogonalLoop=1;jettySize=auto;html=1;exitX=0.75;exitY=1;exitDx=0;exitDy=0;entryX=0.5;entryY=0;entryDx=0;entryDy=0;" parent="1" source="Vjh2JXgH-vHC_lRV9fql-3" target="Vjh2JXgH-vHC_lRV9fql-8" edge="1">
          <mxGeometry relative="1" as="geometry" />
        </mxCell>
        <mxCell id="Vjh2JXgH-vHC_lRV9fql-12" style="edgeStyle=orthogonalEdgeStyle;rounded=0;orthogonalLoop=1;jettySize=auto;html=1;entryX=0;entryY=0.5;entryDx=0;entryDy=0;" parent="1" source="Vjh2JXgH-vHC_lRV9fql-3" edge="1">
          <mxGeometry relative="1" as="geometry">
            <mxPoint x="320" y="655" as="targetPoint" />
          </mxGeometry>
        </mxCell>
        <mxCell id="Vjh2JXgH-vHC_lRV9fql-3" value="&lt;font style=&quot;font-size: 20px;&quot;&gt;Command&lt;/font&gt;" style="html=1;whiteSpace=wrap;" parent="1" vertex="1">
          <mxGeometry x="120" y="640" width="120" height="30" as="geometry" />
        </mxCell>
        <mxCell id="Vjh2JXgH-vHC_lRV9fql-6" value="&lt;font style=&quot;font-size: 18px;&quot;&gt;input_strings&lt;br&gt;&lt;/font&gt;" style="html=1;whiteSpace=wrap;" parent="1" vertex="1">
          <mxGeometry x="40" y="720" width="120" height="30" as="geometry" />
        </mxCell>
        <mxCell id="Vjh2JXgH-vHC_lRV9fql-8" value="&lt;font style=&quot;font-size: 12px;&quot;&gt;configuration_setting&lt;/font&gt;" style="html=1;whiteSpace=wrap;" parent="1" vertex="1">
          <mxGeometry x="200" y="720" width="120" height="30" as="geometry" />
        </mxCell>
        <mxCell id="Vjh2JXgH-vHC_lRV9fql-9" value="&lt;font style=&quot;font-size: 15px;&quot;&gt;Turing_Machine&lt;/font&gt;" style="html=1;whiteSpace=wrap;" parent="1" vertex="1">
          <mxGeometry x="320" y="280" width="120" height="30" as="geometry" />
        </mxCell>
        <mxCell id="Vjh2JXgH-vHC_lRV9fql-10" style="edgeStyle=orthogonalEdgeStyle;rounded=0;orthogonalLoop=1;jettySize=auto;html=1;exitX=0.25;exitY=1;exitDx=0;exitDy=0;entryX=0.558;entryY=-0.1;entryDx=0;entryDy=0;entryPerimeter=0;" parent="1" source="Vjh2JXgH-vHC_lRV9fql-3" target="Vjh2JXgH-vHC_lRV9fql-6" edge="1">
          <mxGeometry relative="1" as="geometry" />
        </mxCell>
        <mxCell id="Vjh2JXgH-vHC_lRV9fql-20" style="edgeStyle=orthogonalEdgeStyle;rounded=0;orthogonalLoop=1;jettySize=auto;html=1;exitX=0;exitY=0.5;exitDx=0;exitDy=0;entryX=0;entryY=0.75;entryDx=0;entryDy=0;strokeColor=default;endArrow=none;endFill=0;" parent="1" source="Vjh2JXgH-vHC_lRV9fql-13" target="yM6eI-i70DeQBDmgYr31-5" edge="1">
          <mxGeometry relative="1" as="geometry">
            <Array as="points">
              <mxPoint x="540" y="55" />
              <mxPoint x="540" y="560" />
              <mxPoint x="600" y="560" />
            </Array>
          </mxGeometry>
        </mxCell>
        <mxCell id="Vjh2JXgH-vHC_lRV9fql-23" style="edgeStyle=orthogonalEdgeStyle;rounded=0;orthogonalLoop=1;jettySize=auto;html=1;exitX=0.5;exitY=1;exitDx=0;exitDy=0;entryX=0.5;entryY=0;entryDx=0;entryDy=0;" parent="1" source="Vjh2JXgH-vHC_lRV9fql-13" target="Vjh2JXgH-vHC_lRV9fql-14" edge="1">
          <mxGeometry relative="1" as="geometry" />
        </mxCell>
        <mxCell id="Vjh2JXgH-vHC_lRV9fql-30" style="edgeStyle=orthogonalEdgeStyle;rounded=0;orthogonalLoop=1;jettySize=auto;html=1;exitX=1;exitY=0.5;exitDx=0;exitDy=0;entryX=1;entryY=0.5;entryDx=0;entryDy=0;" parent="1" source="Vjh2JXgH-vHC_lRV9fql-13" target="Vjh2JXgH-vHC_lRV9fql-15" edge="1">
          <mxGeometry relative="1" as="geometry">
            <Array as="points">
              <mxPoint x="770" y="55" />
              <mxPoint x="770" y="215" />
            </Array>
          </mxGeometry>
        </mxCell>
        <mxCell id="Vjh2JXgH-vHC_lRV9fql-13" value="&lt;font style=&quot;font-size: 20px;&quot;&gt;Tape&lt;/font&gt;" style="html=1;whiteSpace=wrap;" parent="1" vertex="1">
          <mxGeometry x="600" y="40" width="120" height="30" as="geometry" />
        </mxCell>
        <mxCell id="Vjh2JXgH-vHC_lRV9fql-24" style="edgeStyle=orthogonalEdgeStyle;rounded=0;orthogonalLoop=1;jettySize=auto;html=1;exitX=0.5;exitY=1;exitDx=0;exitDy=0;entryX=0.5;entryY=0;entryDx=0;entryDy=0;" parent="1" source="Vjh2JXgH-vHC_lRV9fql-14" target="Vjh2JXgH-vHC_lRV9fql-15" edge="1">
          <mxGeometry relative="1" as="geometry" />
        </mxCell>
        <mxCell id="Vjh2JXgH-vHC_lRV9fql-31" style="edgeStyle=orthogonalEdgeStyle;rounded=0;orthogonalLoop=1;jettySize=auto;html=1;exitX=0;exitY=0.5;exitDx=0;exitDy=0;endArrow=none;endFill=0;" parent="1" source="Vjh2JXgH-vHC_lRV9fql-14" edge="1">
          <mxGeometry relative="1" as="geometry">
            <mxPoint x="540" y="135" as="targetPoint" />
          </mxGeometry>
        </mxCell>
        <mxCell id="Vjh2JXgH-vHC_lRV9fql-14" value="&lt;font style=&quot;font-size: 17px;&quot;&gt;Input_Alphabet&lt;/font&gt;" style="html=1;whiteSpace=wrap;" parent="1" vertex="1">
          <mxGeometry x="600" y="120" width="120" height="30" as="geometry" />
        </mxCell>
        <mxCell id="Vjh2JXgH-vHC_lRV9fql-32" style="edgeStyle=orthogonalEdgeStyle;rounded=0;orthogonalLoop=1;jettySize=auto;html=1;exitX=0;exitY=0.5;exitDx=0;exitDy=0;endArrow=none;endFill=0;" parent="1" source="Vjh2JXgH-vHC_lRV9fql-15" edge="1">
          <mxGeometry relative="1" as="geometry">
            <mxPoint x="540" y="215" as="targetPoint" />
          </mxGeometry>
        </mxCell>
        <mxCell id="Vjh2JXgH-vHC_lRV9fql-15" value="&lt;font style=&quot;font-size: 17px;&quot;&gt;Tape_Alphabet&lt;/font&gt;" style="html=1;whiteSpace=wrap;" parent="1" vertex="1">
          <mxGeometry x="600" y="200" width="120" height="30" as="geometry" />
        </mxCell>
        <mxCell id="Vjh2JXgH-vHC_lRV9fql-27" style="edgeStyle=orthogonalEdgeStyle;rounded=0;orthogonalLoop=1;jettySize=auto;html=1;exitX=0.5;exitY=0;exitDx=0;exitDy=0;entryX=0.5;entryY=1;entryDx=0;entryDy=0;" parent="1" source="Vjh2JXgH-vHC_lRV9fql-16" target="Vjh2JXgH-vHC_lRV9fql-15" edge="1">
          <mxGeometry relative="1" as="geometry" />
        </mxCell>
        <mxCell id="Vjh2JXgH-vHC_lRV9fql-28" style="edgeStyle=orthogonalEdgeStyle;rounded=0;orthogonalLoop=1;jettySize=auto;html=1;exitX=1;exitY=0.75;exitDx=0;exitDy=0;entryX=1;entryY=0.5;entryDx=0;entryDy=0;" parent="1" source="Vjh2JXgH-vHC_lRV9fql-16" target="Vjh2JXgH-vHC_lRV9fql-18" edge="1">
          <mxGeometry relative="1" as="geometry">
            <Array as="points">
              <mxPoint x="770" y="343" />
              <mxPoint x="770" y="495" />
            </Array>
          </mxGeometry>
        </mxCell>
        <mxCell id="Vjh2JXgH-vHC_lRV9fql-29" style="edgeStyle=orthogonalEdgeStyle;rounded=0;orthogonalLoop=1;jettySize=auto;html=1;exitX=1;exitY=0.5;exitDx=0;exitDy=0;" parent="1" source="Vjh2JXgH-vHC_lRV9fql-16" target="Vjh2JXgH-vHC_lRV9fql-19" edge="1">
          <mxGeometry relative="1" as="geometry" />
        </mxCell>
        <mxCell id="Vjh2JXgH-vHC_lRV9fql-59" style="edgeStyle=orthogonalEdgeStyle;rounded=0;orthogonalLoop=1;jettySize=auto;html=1;exitX=0.5;exitY=1;exitDx=0;exitDy=0;" parent="1" source="Vjh2JXgH-vHC_lRV9fql-16" target="Vjh2JXgH-vHC_lRV9fql-17" edge="1">
          <mxGeometry relative="1" as="geometry" />
        </mxCell>
        <mxCell id="Vjh2JXgH-vHC_lRV9fql-16" value="Transition_Function" style="html=1;whiteSpace=wrap;" parent="1" vertex="1">
          <mxGeometry x="600" y="320" width="120" height="30" as="geometry" />
        </mxCell>
        <mxCell id="Vjh2JXgH-vHC_lRV9fql-17" value="&lt;font style=&quot;font-size: 20px;&quot;&gt;States&lt;/font&gt;" style="html=1;whiteSpace=wrap;" parent="1" vertex="1">
          <mxGeometry x="600" y="400" width="120" height="30" as="geometry" />
        </mxCell>
        <mxCell id="Vjh2JXgH-vHC_lRV9fql-25" style="edgeStyle=orthogonalEdgeStyle;rounded=0;orthogonalLoop=1;jettySize=auto;html=1;exitX=0.5;exitY=0;exitDx=0;exitDy=0;entryX=0.5;entryY=1;entryDx=0;entryDy=0;" parent="1" source="Vjh2JXgH-vHC_lRV9fql-18" target="Vjh2JXgH-vHC_lRV9fql-17" edge="1">
          <mxGeometry relative="1" as="geometry" />
        </mxCell>
        <mxCell id="Vjh2JXgH-vHC_lRV9fql-18" value="&lt;font style=&quot;font-size: 20px;&quot;&gt;Final_States&lt;/font&gt;" style="html=1;whiteSpace=wrap;" parent="1" vertex="1">
          <mxGeometry x="600" y="480" width="120" height="30" as="geometry" />
        </mxCell>
        <mxCell id="Vjh2JXgH-vHC_lRV9fql-19" value="&lt;font style=&quot;font-size: 20px;&quot;&gt;Transition&lt;/font&gt;" style="html=1;whiteSpace=wrap;" parent="1" vertex="1">
          <mxGeometry x="800" y="320" width="120" height="30" as="geometry" />
        </mxCell>
        <mxCell id="Vjh2JXgH-vHC_lRV9fql-22" value="" style="endArrow=diamondThin;endFill=1;endSize=24;html=1;rounded=0;entryX=1;entryY=0.5;entryDx=0;entryDy=0;" parent="1" target="Vjh2JXgH-vHC_lRV9fql-9" edge="1">
          <mxGeometry width="160" relative="1" as="geometry">
            <mxPoint x="540" y="295" as="sourcePoint" />
            <mxPoint x="500" y="400" as="targetPoint" />
          </mxGeometry>
        </mxCell>
        <mxCell id="Vjh2JXgH-vHC_lRV9fql-35" value="" style="endArrow=none;html=1;rounded=0;" parent="1" edge="1">
          <mxGeometry relative="1" as="geometry">
            <mxPoint x="540" y="55" as="sourcePoint" />
            <mxPoint x="600" y="54.5" as="targetPoint" />
          </mxGeometry>
        </mxCell>
        <mxCell id="Vjh2JXgH-vHC_lRV9fql-36" value="1" style="resizable=0;html=1;whiteSpace=wrap;align=right;verticalAlign=bottom;" parent="Vjh2JXgH-vHC_lRV9fql-35" connectable="0" vertex="1">
          <mxGeometry x="1" relative="1" as="geometry" />
        </mxCell>
        <mxCell id="Vjh2JXgH-vHC_lRV9fql-38" value="" style="endArrow=none;html=1;rounded=0;" parent="1" edge="1">
          <mxGeometry relative="1" as="geometry">
            <mxPoint x="540" y="135" as="sourcePoint" />
            <mxPoint x="600" y="134.71" as="targetPoint" />
          </mxGeometry>
        </mxCell>
        <mxCell id="Vjh2JXgH-vHC_lRV9fql-39" value="1" style="resizable=0;html=1;whiteSpace=wrap;align=right;verticalAlign=bottom;" parent="Vjh2JXgH-vHC_lRV9fql-38" connectable="0" vertex="1">
          <mxGeometry x="1" relative="1" as="geometry" />
        </mxCell>
        <mxCell id="Vjh2JXgH-vHC_lRV9fql-40" value="" style="endArrow=none;html=1;rounded=0;" parent="1" edge="1">
          <mxGeometry relative="1" as="geometry">
            <mxPoint x="540" y="495" as="sourcePoint" />
            <mxPoint x="600" y="494.71" as="targetPoint" />
          </mxGeometry>
        </mxCell>
        <mxCell id="Vjh2JXgH-vHC_lRV9fql-41" value="1" style="resizable=0;html=1;whiteSpace=wrap;align=right;verticalAlign=bottom;" parent="Vjh2JXgH-vHC_lRV9fql-40" connectable="0" vertex="1">
          <mxGeometry x="1" relative="1" as="geometry" />
        </mxCell>
        <mxCell id="Vjh2JXgH-vHC_lRV9fql-42" value="" style="endArrow=none;html=1;rounded=0;" parent="1" edge="1">
          <mxGeometry relative="1" as="geometry">
            <mxPoint x="540" y="420" as="sourcePoint" />
            <mxPoint x="600" y="420" as="targetPoint" />
          </mxGeometry>
        </mxCell>
        <mxCell id="Vjh2JXgH-vHC_lRV9fql-43" value="1" style="resizable=0;html=1;whiteSpace=wrap;align=right;verticalAlign=bottom;" parent="Vjh2JXgH-vHC_lRV9fql-42" connectable="0" vertex="1">
          <mxGeometry x="1" relative="1" as="geometry" />
        </mxCell>
        <mxCell id="Vjh2JXgH-vHC_lRV9fql-44" value="" style="endArrow=none;html=1;rounded=0;" parent="1" edge="1">
          <mxGeometry relative="1" as="geometry">
            <mxPoint x="540" y="335" as="sourcePoint" />
            <mxPoint x="600" y="334.71000000000004" as="targetPoint" />
          </mxGeometry>
        </mxCell>
        <mxCell id="Vjh2JXgH-vHC_lRV9fql-45" value="1" style="resizable=0;html=1;whiteSpace=wrap;align=right;verticalAlign=bottom;" parent="Vjh2JXgH-vHC_lRV9fql-44" connectable="0" vertex="1">
          <mxGeometry x="1" relative="1" as="geometry" />
        </mxCell>
        <mxCell id="Vjh2JXgH-vHC_lRV9fql-46" value="" style="endArrow=none;html=1;rounded=0;" parent="1" edge="1">
          <mxGeometry relative="1" as="geometry">
            <mxPoint x="540" y="215" as="sourcePoint" />
            <mxPoint x="600" y="214.70999999999998" as="targetPoint" />
          </mxGeometry>
        </mxCell>
        <mxCell id="Vjh2JXgH-vHC_lRV9fql-47" value="1" style="resizable=0;html=1;whiteSpace=wrap;align=right;verticalAlign=bottom;" parent="Vjh2JXgH-vHC_lRV9fql-46" connectable="0" vertex="1">
          <mxGeometry x="1" relative="1" as="geometry" />
        </mxCell>
        <mxCell id="Vjh2JXgH-vHC_lRV9fql-48" value="" style="endArrow=none;html=1;rounded=0;exitX=1;exitY=0.5;exitDx=0;exitDy=0;" parent="1" source="Vjh2JXgH-vHC_lRV9fql-3" edge="1">
          <mxGeometry relative="1" as="geometry">
            <mxPoint x="160" y="654.71" as="sourcePoint" />
            <mxPoint x="320" y="654.71" as="targetPoint" />
          </mxGeometry>
        </mxCell>
        <mxCell id="Vjh2JXgH-vHC_lRV9fql-49" value="1" style="resizable=0;html=1;whiteSpace=wrap;align=right;verticalAlign=bottom;" parent="Vjh2JXgH-vHC_lRV9fql-48" connectable="0" vertex="1">
          <mxGeometry x="1" relative="1" as="geometry" />
        </mxCell>
        <mxCell id="Vjh2JXgH-vHC_lRV9fql-50" value="" style="endArrow=none;html=1;rounded=0;" parent="1" edge="1">
          <mxGeometry relative="1" as="geometry">
            <mxPoint x="260" y="700" as="sourcePoint" />
            <mxPoint x="259.71" y="720" as="targetPoint" />
          </mxGeometry>
        </mxCell>
        <mxCell id="Vjh2JXgH-vHC_lRV9fql-51" value="1" style="resizable=0;html=1;whiteSpace=wrap;align=right;verticalAlign=bottom;" parent="Vjh2JXgH-vHC_lRV9fql-50" connectable="0" vertex="1">
          <mxGeometry x="1" relative="1" as="geometry">
            <mxPoint x="20" as="offset" />
          </mxGeometry>
        </mxCell>
        <mxCell id="Vjh2JXgH-vHC_lRV9fql-52" value="1" style="resizable=0;html=1;whiteSpace=wrap;align=right;verticalAlign=bottom;" parent="1" connectable="0" vertex="1">
          <mxGeometry x="100.00003048144347" y="719.9978978314799" as="geometry" />
        </mxCell>
        <mxCell id="Vjh2JXgH-vHC_lRV9fql-53" value="1" style="resizable=0;html=1;whiteSpace=wrap;align=right;verticalAlign=bottom;" parent="1" connectable="0" vertex="1">
          <mxGeometry x="200.0000304814435" y="639.9978978314799" as="geometry" />
        </mxCell>
        <mxCell id="Vjh2JXgH-vHC_lRV9fql-54" value="*" style="resizable=0;html=1;whiteSpace=wrap;align=right;verticalAlign=bottom;" parent="1" connectable="0" vertex="1">
          <mxGeometry x="800.0000304814434" y="334.9978978314799" as="geometry" />
        </mxCell>
        <mxCell id="Vjh2JXgH-vHC_lRV9fql-56" value="1" style="resizable=0;html=1;whiteSpace=wrap;align=right;verticalAlign=bottom;" parent="1" connectable="0" vertex="1">
          <mxGeometry x="680.0000304814434" y="449.9978978314799" as="geometry" />
        </mxCell>
        <mxCell id="Vjh2JXgH-vHC_lRV9fql-57" value="1" style="resizable=0;html=1;whiteSpace=wrap;align=right;verticalAlign=bottom;" parent="1" connectable="0" vertex="1">
          <mxGeometry x="680.0000304814434" y="399.9978978314799" as="geometry" />
        </mxCell>
        <mxCell id="Vjh2JXgH-vHC_lRV9fql-58" value="1" style="resizable=0;html=1;whiteSpace=wrap;align=right;verticalAlign=bottom;" parent="1" connectable="0" vertex="1">
          <mxGeometry x="680.0000304814434" y="249.99789783147992" as="geometry" />
        </mxCell>
        <mxCell id="Vjh2JXgH-vHC_lRV9fql-60" value="1" style="resizable=0;html=1;whiteSpace=wrap;align=right;verticalAlign=bottom;" parent="1" connectable="0" vertex="1">
          <mxGeometry x="680.0000304814434" y="199.99789783147992" as="geometry" />
        </mxCell>
        <mxCell id="Vjh2JXgH-vHC_lRV9fql-61" value="1" style="resizable=0;html=1;whiteSpace=wrap;align=right;verticalAlign=bottom;" parent="1" connectable="0" vertex="1">
          <mxGeometry x="680.0000304814434" y="119.99789783147992" as="geometry" />
        </mxCell>
        <mxCell id="Vjh2JXgH-vHC_lRV9fql-62" value="1" style="resizable=0;html=1;whiteSpace=wrap;align=right;verticalAlign=bottom;" parent="1" connectable="0" vertex="1">
          <mxGeometry x="730.0000304814434" y="489.9978978314799" as="geometry" />
        </mxCell>
        <mxCell id="Vjh2JXgH-vHC_lRV9fql-63" value="1" style="resizable=0;html=1;whiteSpace=wrap;align=right;verticalAlign=bottom;" parent="1" connectable="0" vertex="1">
          <mxGeometry x="730.0000304814434" y="209.99789783147992" as="geometry" />
        </mxCell>
        <mxCell id="VlBARi90VnZAebQQU7l1-1" value="&lt;div&gt;is not filled from&lt;/div&gt;" style="text;html=1;align=center;verticalAlign=middle;resizable=0;points=[];autosize=1;strokeColor=none;fillColor=none;" parent="1" vertex="1">
          <mxGeometry x="660" y="70" width="110" height="30" as="geometry" />
        </mxCell>
        <mxCell id="VlBARi90VnZAebQQU7l1-2" value="is filled from" style="text;html=1;align=center;verticalAlign=middle;resizable=0;points=[];autosize=1;strokeColor=none;fillColor=none;" parent="1" vertex="1">
          <mxGeometry x="770" y="100" width="90" height="30" as="geometry" />
        </mxCell>
        <mxCell id="VlBARi90VnZAebQQU7l1-5" value="&lt;div align=&quot;left&quot;&gt;is subset of&lt;br&gt;&lt;/div&gt;" style="text;html=1;align=left;verticalAlign=middle;resizable=0;points=[];autosize=1;strokeColor=none;fillColor=none;" parent="1" vertex="1">
          <mxGeometry x="670" y="150" width="90" height="30" as="geometry" />
        </mxCell>
        <mxCell id="VlBARi90VnZAebQQU7l1-6" value="is based on" style="text;html=1;align=left;verticalAlign=middle;resizable=0;points=[];autosize=1;strokeColor=none;fillColor=none;" parent="1" vertex="1">
          <mxGeometry x="669" y="250" width="90" height="30" as="geometry" />
        </mxCell>
        <mxCell id="VlBARi90VnZAebQQU7l1-7" value="&lt;div align=&quot;left&quot;&gt;contains&lt;/div&gt;" style="text;html=1;align=left;verticalAlign=middle;resizable=0;points=[];autosize=1;strokeColor=none;fillColor=none;" parent="1" vertex="1">
          <mxGeometry x="730" y="310" width="70" height="30" as="geometry" />
        </mxCell>
        <mxCell id="VlBARi90VnZAebQQU7l1-9" value="" style="endArrow=classic;html=1;rounded=0;strokeWidth=1;" parent="1" edge="1">
          <mxGeometry width="50" height="50" relative="1" as="geometry">
            <mxPoint x="693" y="254" as="sourcePoint" />
            <mxPoint x="693" y="244" as="targetPoint" />
          </mxGeometry>
        </mxCell>
        <mxCell id="VlBARi90VnZAebQQU7l1-10" value="is based on" style="text;html=1;align=left;verticalAlign=middle;resizable=0;points=[];autosize=1;strokeColor=none;fillColor=none;" parent="1" vertex="1">
          <mxGeometry x="670" y="360" width="90" height="30" as="geometry" />
        </mxCell>
        <mxCell id="VlBARi90VnZAebQQU7l1-12" value="is subset of" style="text;html=1;align=left;verticalAlign=middle;resizable=0;points=[];autosize=1;strokeColor=none;fillColor=none;" parent="1" vertex="1">
          <mxGeometry x="669" y="450" width="90" height="30" as="geometry" />
        </mxCell>
        <mxCell id="VlBARi90VnZAebQQU7l1-13" value="does not leave" style="text;html=1;align=left;verticalAlign=middle;resizable=0;points=[];autosize=1;strokeColor=none;fillColor=none;" parent="1" vertex="1">
          <mxGeometry x="780" y="408" width="100" height="30" as="geometry" />
        </mxCell>
        <mxCell id="VlBARi90VnZAebQQU7l1-15" value="1" style="resizable=0;html=1;whiteSpace=wrap;align=right;verticalAlign=bottom;" parent="1" connectable="0" vertex="1">
          <mxGeometry x="317.99947438018035" y="290.0000019053719" as="geometry" />
        </mxCell>
        <mxCell id="VlBARi90VnZAebQQU7l1-16" value="operates" style="text;html=1;align=center;verticalAlign=middle;resizable=0;points=[];autosize=1;strokeColor=none;fillColor=none;" parent="1" vertex="1">
          <mxGeometry x="240" y="270" width="70" height="30" as="geometry" />
        </mxCell>
        <mxCell id="VlBARi90VnZAebQQU7l1-18" value="&lt;div&gt;spacer&lt;/div&gt;" style="html=1;whiteSpace=wrap;" parent="1" vertex="1">
          <mxGeometry x="590" y="-60" width="120" height="30" as="geometry" />
        </mxCell>
        <mxCell id="yM6eI-i70DeQBDmgYr31-3" style="edgeStyle=orthogonalEdgeStyle;rounded=0;orthogonalLoop=1;jettySize=auto;html=1;exitX=1;exitY=0.5;exitDx=0;exitDy=0;entryX=0;entryY=0.5;entryDx=0;entryDy=0;" edge="1" parent="1" source="yM6eI-i70DeQBDmgYr31-1" target="Vjh2JXgH-vHC_lRV9fql-9">
          <mxGeometry relative="1" as="geometry" />
        </mxCell>
        <mxCell id="yM6eI-i70DeQBDmgYr31-9" style="edgeStyle=orthogonalEdgeStyle;rounded=0;orthogonalLoop=1;jettySize=auto;html=1;exitX=0.5;exitY=1;exitDx=0;exitDy=0;entryX=0.5;entryY=1;entryDx=0;entryDy=0;" edge="1" parent="1" source="yM6eI-i70DeQBDmgYr31-1" target="yM6eI-i70DeQBDmgYr31-5">
          <mxGeometry relative="1" as="geometry" />
        </mxCell>
        <mxCell id="yM6eI-i70DeQBDmgYr31-1" value="&lt;font style=&quot;font-size: 20px;&quot;&gt;Commands&lt;/font&gt;" style="html=1;whiteSpace=wrap;" vertex="1" parent="1">
          <mxGeometry x="120" y="280" width="120" height="30" as="geometry" />
        </mxCell>
        <mxCell id="yM6eI-i70DeQBDmgYr31-5" value="&lt;font style=&quot;font-size: 19px;&quot;&gt;Input_Strings&lt;/font&gt;" style="html=1;whiteSpace=wrap;" vertex="1" parent="1">
          <mxGeometry x="600" y="540" width="120" height="30" as="geometry" />
        </mxCell>
        <mxCell id="yM6eI-i70DeQBDmgYr31-6" value="1" style="resizable=0;html=1;whiteSpace=wrap;align=right;verticalAlign=bottom;" connectable="0" vertex="1" parent="1">
          <mxGeometry x="599.9992991789456" y="559.7100033873016" as="geometry" />
        </mxCell>
        <mxCell id="yM6eI-i70DeQBDmgYr31-7" value="performs" style="text;html=1;align=center;verticalAlign=middle;resizable=0;points=[];autosize=1;strokeColor=none;fillColor=none;" vertex="1" parent="1">
          <mxGeometry x="180" y="220" width="70" height="30" as="geometry" />
        </mxCell>
        <mxCell id="yM6eI-i70DeQBDmgYr31-8" value="1" style="resizable=0;html=1;whiteSpace=wrap;align=right;verticalAlign=bottom;" connectable="0" vertex="1" parent="1">
          <mxGeometry x="329.99947438018035" y="664.7100019053719" as="geometry">
            <mxPoint x="-156" y="-386" as="offset" />
          </mxGeometry>
        </mxCell>
        <mxCell id="yM6eI-i70DeQBDmgYr31-10" value="accesses" style="text;html=1;align=center;verticalAlign=middle;resizable=0;points=[];autosize=1;strokeColor=none;fillColor=none;" vertex="1" parent="1">
          <mxGeometry x="385" y="559.71" width="80" height="30" as="geometry" />
        </mxCell>
      </root>
    </mxGraphModel>
  </diagram>
</mxfile>
